<svg xmlns="http://www.w3.org/2000/svg" viewBox="0 0 496 496"><defs><style>.cls-1{fill:#fff;}</style></defs><title>Asset 1</title><g id="Layer_2" data-name="Layer 2"><g id="Layer_1-2" data-name="Layer 1"><path class="cls-1" d="M248,0C111,0,0,111,0,248S111,496,248,496,496,385,496,248,385,0,248,0ZM421.7,119.56,358.3,183A129.49,129.49,0,0,0,313,137.7l63.4-63.4A218.18,218.18,0,0,1,421.7,119.56ZM248,344a96,96,0,1,1,96-96A96,96,0,0,1,248,344ZM119.56,74.3,183,137.7A129.49,129.49,0,0,0,137.7,183l-63.4-63.4A218.18,218.18,0,0,1,119.56,74.3ZM74.3,376.44,137.7,313A129.49,129.49,0,0,0,183,358.3l-63.4,63.4A218.18,218.18,0,0,1,74.3,376.44ZM376.44,421.7,313,358.3A129.49,129.49,0,0,0,358.3,313l63.4,63.4A218.18,218.18,0,0,1,376.44,421.7Z"/></g></g></svg>